<svg width="60" height="61" viewBox="0 0 60 61" fill="none" xmlns="http://www.w3.org/2000/svg">
<path d="M29.4875 0.0504332C29.3802 0.0786643 29.1883 0.214173 29.0528 0.349682C28.6801 0.727978 28.6745 0.778793 28.697 3.99713L28.714 6.792L28.8664 7.05737C29.3351 7.85349 30.5264 7.81396 30.9442 6.98397C31.0515 6.77506 31.0572 6.63955 31.0572 3.8108V0.852194L30.9273 0.603761C30.6789 0.135126 30.0296 -0.113307 29.4875 0.0504332Z" fill="#FE1718"/>
<path d="M10.1944 0.406129C9.9686 0.507761 9.7484 0.716671 9.62418 0.953811C9.48867 1.21354 9.48302 1.75557 9.61853 2.02094C9.66935 2.13387 10.7647 3.26875 12.0464 4.53915C14.1863 6.67906 14.3952 6.86539 14.6437 6.93314C15.2026 7.08559 15.7616 6.85974 16.0326 6.37981C16.202 6.06362 16.2133 5.57805 16.0496 5.26186C15.8802 4.94003 11.4366 0.524699 11.1712 0.411775C10.9172 0.310143 10.4259 0.304497 10.1944 0.406129Z" fill="#FE1718"/>
<path d="M48.5886 0.434367C48.4362 0.507768 47.5892 1.32082 46.0365 2.87353C43.6087 5.31833 43.5917 5.33527 43.5917 5.80391C43.5917 6.43628 44.1451 6.98961 44.7774 6.98961C45.2856 6.98961 45.4042 6.89362 47.7304 4.57303C48.933 3.37039 49.9889 2.29197 50.0736 2.16775C50.1921 1.99836 50.226 1.8685 50.243 1.56925C50.2655 1.15708 50.1639 0.869124 49.9042 0.626338C49.5824 0.327089 49.0008 0.242396 48.5886 0.434367Z" fill="#FE1718"/>
<path d="M25.5521 9.70544C25.0157 9.79578 24.4059 10.0837 24.1462 10.3717C24.0559 10.4733 24.0389 10.4733 23.6155 10.3717C23.0226 10.2249 22.1757 10.2305 21.6054 10.3773C20.894 10.558 20.3181 10.8911 19.7648 11.4501C19.0195 12.1954 18.6976 12.8447 18.5621 13.8893C18.5057 14.3523 18.5565 15.1314 18.6637 15.4081C18.6863 15.4759 18.6186 15.5154 18.3419 15.5944C16.473 16.1139 15.18 18.107 15.468 20.0323C15.5019 20.2638 15.5358 20.501 15.547 20.5574C15.5527 20.6365 15.4624 20.6873 15.1066 20.8115C14.463 21.0261 14.0508 21.2914 13.5201 21.8109C13.1418 22.1835 13.0175 22.3586 12.803 22.799C12.4473 23.5217 12.3456 23.9282 12.3456 24.6905C12.3456 25.4301 12.4868 26.0004 12.8143 26.6102L13.0288 27.011L12.7691 27.1183C12.165 27.3611 11.5269 27.8467 11.143 28.3548C10.5784 29.1058 10.2791 29.9866 10.2791 30.9069C10.2791 31.9007 10.6574 32.9057 11.3011 33.6002L11.6512 33.9898L9.69193 35.949L7.7327 37.9082L7.33182 37.7727C6.68815 37.5582 6.05013 37.5017 5.41776 37.609C4.28287 37.8009 3.84247 38.0889 2.24459 39.6755C0.957255 40.9459 0.629776 41.3355 0.347466 41.9396C-0.183278 43.0519 -0.0985845 44.5482 0.550729 45.6379C0.827393 46.0952 3.76906 49.0651 4.11348 49.2289C4.29981 49.3192 4.42967 49.3418 4.65552 49.3248C5.28789 49.274 5.70571 48.8675 5.75088 48.269C5.79605 47.6705 5.77911 47.6479 4.09654 45.9484C2.35751 44.1924 2.33493 44.1642 2.38574 43.4697C2.40833 43.1874 2.4535 43.0067 2.56078 42.8317C2.63982 42.6962 3.24397 42.0525 3.91022 41.3919C5.27095 40.0368 5.4234 39.9352 6.04448 39.9409C6.24775 39.9465 6.50747 39.986 6.6204 40.0368C6.76155 40.0933 8.01501 41.2903 10.3469 43.5939C14.4856 47.6762 19.3526 52.5714 19.505 52.8029C19.5615 52.8876 19.697 53.0118 19.7986 53.0739C20.2447 53.3336 20.431 54.1919 20.1656 54.7847C20.0019 55.163 17.7321 57.4554 17.3087 57.6812C16.9247 57.8788 16.3545 57.8845 15.9818 57.6982C15.8181 57.6135 15.197 57.0376 14.2315 56.0833C12.5771 54.446 12.4642 54.3669 11.9278 54.4403C11.1148 54.5532 10.6574 55.4002 11.0131 56.1398C11.0865 56.2866 11.6737 56.919 12.6618 57.8958C13.8532 59.0758 14.2936 59.4767 14.5985 59.6574C15.8689 60.4027 17.3877 60.4027 18.6637 59.6574C18.963 59.4824 19.3808 59.1097 20.3745 58.1216C21.7353 56.7778 22.091 56.36 22.3338 55.801C22.8024 54.7508 22.7685 53.4127 22.2547 52.3907L22.0853 52.0633L24.3834 49.7765C26.3821 47.7891 26.7209 47.4729 26.9637 47.3826C27.2855 47.2583 28.0364 47.2527 31.1983 47.3261L32.9486 47.3656L35.3652 49.7765L37.7818 52.1931L37.635 52.5093C37.076 53.7289 37.2793 55.3663 38.1319 56.4786C38.5045 56.9698 40.7969 59.217 41.1752 59.4598C41.8583 59.9058 42.4681 60.0809 43.3377 60.0865C44.0886 60.0922 44.4161 60.0188 45.1106 59.6856C45.6357 59.4315 45.6582 59.4146 47.4537 57.6643C50.5422 54.6492 59.0962 46.05 59.2825 45.7621C60.0109 44.678 60.1859 43.4697 59.802 42.2219C59.5818 41.5105 59.3503 41.2113 57.9049 39.7489C56.5554 38.3769 56.115 38.0099 55.5278 37.7614C54.5736 37.3492 53.2919 37.3605 52.3659 37.784L52.078 37.9195L50.1131 35.9546L48.1482 33.9898L48.4701 33.6284C48.8314 33.2332 49.2436 32.4596 49.3791 31.9232C49.7405 30.4778 49.3452 29.0493 48.2837 27.9878C47.736 27.4402 47.1714 27.124 46.3245 26.8925C46.2793 26.8812 46.285 26.757 46.3414 26.4577C46.5052 25.6447 46.3584 24.6396 45.9744 23.8887C45.4493 22.8724 44.5855 22.1384 43.5183 21.8052L43.1852 21.7036L43.2191 21.5004C43.236 21.3931 43.2643 21.06 43.2868 20.7663C43.4111 18.9426 42.2649 17.2488 40.5089 16.6729L40.0516 16.5204L40.1363 16.1703C40.2548 15.6565 40.1984 14.708 40.012 14.1321C39.4531 12.3987 37.8834 11.2807 36.0089 11.2807C35.6532 11.2807 34.6256 11.1057 31.5314 10.5241C29.3238 10.1063 27.3081 9.73367 27.0427 9.70544C26.5063 9.63203 25.9586 9.63768 25.5521 9.70544ZM26.9919 12.0938C27.7146 12.2123 32.4348 13.1045 32.4687 13.127C32.48 13.1383 31.8081 13.8328 30.9725 14.6684L29.4536 16.1873L29.1375 16.0122C28.4034 15.6057 27.2121 14.5047 26.6249 13.7086C26.1845 13.1045 25.7949 12.2236 25.8965 12.0599C25.9417 11.9921 26.4555 12.0091 26.9919 12.0938ZM23.2202 12.7262C23.5364 12.8334 23.6155 12.9181 23.734 13.3134C24.3212 15.2557 27.0653 17.9602 29.0923 18.5982C29.3859 18.6885 29.4311 18.7224 29.544 18.9539C29.6513 19.1628 29.6738 19.3096 29.6738 19.6936C29.6738 20.1001 29.6513 20.2187 29.5214 20.4615C29.1149 21.235 28.2397 21.5794 27.3815 21.3027C27.0935 21.2124 26.9129 21.043 24.1293 18.2651C20.9505 15.0976 20.9787 15.1258 20.9109 14.4652C20.8375 13.7425 21.34 12.9746 22.0628 12.7149C22.3564 12.6132 22.904 12.6189 23.2202 12.7262ZM36.8332 13.8215C37.2115 14.0022 37.5785 14.3974 37.7253 14.7757C37.8778 15.1879 37.8552 15.7638 37.6632 16.1365C37.5842 16.3002 37.0704 16.8592 36.2517 17.6892C35.5459 18.4006 34.9248 19.0668 34.874 19.1685C34.7724 19.3661 34.7554 19.8912 34.8401 20.1114C34.8684 20.1904 34.9869 20.3542 35.0998 20.484C35.4443 20.868 36.0258 20.964 36.5057 20.7212C36.6017 20.676 37.0421 20.2751 37.4938 19.8347C38.4142 18.937 38.5723 18.8466 39.2442 18.8466C39.9048 18.8466 40.5033 19.2419 40.7912 19.8573C40.9606 20.2356 40.955 20.9244 40.7743 21.2745C40.6952 21.4326 40.1476 22.0255 39.3571 22.8272C38.6513 23.5386 38.0302 24.2105 37.9738 24.3178C37.7649 24.73 37.8891 25.3962 38.2391 25.7181C38.5497 26.006 39.103 26.102 39.5152 25.9326C39.6394 25.8762 40.0459 25.5261 40.5146 25.0575C41.4518 24.1258 41.6494 24.0129 42.2931 24.0186C42.8295 24.0186 43.2078 24.1767 43.5522 24.5437C43.8684 24.8824 44.0152 25.2607 44.0152 25.735C44.0152 26.4182 43.9474 26.5142 42.519 27.9653C41.3841 29.1171 41.2316 29.2921 41.1695 29.5293C40.8985 30.5004 41.8753 31.3417 42.7956 30.9295C42.9424 30.8618 43.3264 30.5343 43.7837 30.0939C44.6024 29.2921 44.8 29.1792 45.4042 29.1792C45.8954 29.1792 46.2906 29.3486 46.6237 29.7043C46.9625 30.06 47.1206 30.4439 47.1206 30.9013C47.1206 31.5675 47.0698 31.6409 45.3703 33.3574C44.5234 34.21 43.7894 34.9948 43.7329 35.1021C43.5861 35.39 43.603 35.8925 43.7724 36.1918C43.9587 36.5305 44.3032 36.7564 44.6871 36.7903C45.1614 36.8298 45.359 36.7282 45.9349 36.1748L46.4487 35.678L48.3515 37.5807L50.2543 39.4835L44.8057 44.9321L39.3571 50.3807L37.4148 48.4384L35.4725 46.4961L35.879 46.1743C36.4493 45.7113 37.4204 44.7062 37.5221 44.4635C37.5672 44.3505 37.6068 44.1078 37.6068 43.9271C37.6068 43.3286 37.1833 42.8656 36.5735 42.8035C36.0597 42.7527 35.9185 42.8374 35.0377 43.6899C34.5973 44.119 34.1343 44.5199 34.0158 44.582C33.3326 44.9321 32.3332 45.062 30.9442 44.9829C28.9455 44.87 27.4944 44.8587 26.9524 44.9547C26.3595 45.0563 25.8288 45.2426 25.4505 45.4798C25.3093 45.5645 24.1236 46.6881 22.8194 47.9698L20.448 50.3016L15.0107 44.8813L9.57336 39.4609L11.4987 37.5356L13.4241 35.6046L13.7007 35.7457C14.83 36.316 16.2246 36.3216 17.3651 35.757C18.0031 35.4465 18.4379 35.0964 18.8049 34.6108C19.3131 33.9389 19.6518 33.0412 19.6518 32.3693V32.0757L20.0358 32.0418C21.4699 31.9063 22.6951 31.0989 23.3501 29.8454C23.559 29.4502 23.7397 28.8178 23.8018 28.2645L23.8357 27.9483L24.1857 27.9088C26.2014 27.6942 27.7146 26.2093 27.9235 24.2388C27.9461 24.0186 27.9969 23.8266 28.0308 23.804C28.0647 23.7814 28.2058 23.7588 28.347 23.7588C29.2447 23.7532 30.4474 23.1434 31.1023 22.3586C31.7234 21.6076 32.017 20.8567 32.0622 19.8855C32.0961 19.1346 31.9888 18.5813 31.7008 17.9432L31.5032 17.5254L33.1576 15.8654C34.0666 14.9564 34.9135 14.1321 35.0321 14.0304C35.5233 13.6408 36.263 13.5505 36.8332 13.8215ZM20.3011 17.9715C20.5157 18.0731 21.1368 18.666 22.9605 20.4953C25.6142 23.1603 25.5521 23.0813 25.5521 23.8435C25.5408 24.809 24.8181 25.5261 23.8526 25.5317C23.5195 25.5317 23.3953 25.5035 23.0904 25.3567C22.7742 25.1986 22.4467 24.8937 20.4084 22.8442C17.8055 20.2243 17.8225 20.2525 17.8225 19.5242C17.8225 19.0443 17.941 18.7168 18.2346 18.378C18.7484 17.7964 19.601 17.6271 20.3011 17.9715ZM17.0659 23.0813C17.3312 23.1773 17.5797 23.4031 19.2905 25.1252C21.4022 27.2482 21.4304 27.2821 21.4247 27.937C21.4247 28.6146 21.0521 29.2074 20.4536 29.501C20.1939 29.6309 20.0527 29.6591 19.7365 29.6591C18.9856 29.6591 18.9969 29.6704 16.8739 27.5531C14.7396 25.4245 14.7171 25.4019 14.7171 24.6905C14.7171 24.1597 14.8808 23.7871 15.2817 23.4257C15.4511 23.2733 15.6938 23.1095 15.8237 23.0644C16.1738 22.9401 16.7102 22.9458 17.0659 23.0813ZM15.1631 29.3599C15.3494 29.4559 15.7221 29.789 16.2698 30.348C17.1901 31.2852 17.2804 31.4377 17.2804 32.1152C17.2804 33.0864 16.4448 33.8599 15.4736 33.7921C14.8526 33.7526 14.638 33.6171 13.7177 32.6911C13.0063 31.9741 12.8764 31.816 12.7748 31.5337C12.6393 31.1836 12.6167 30.7432 12.707 30.4101C12.8425 29.9301 13.3733 29.3881 13.8588 29.2357C14.1807 29.1397 14.8526 29.2018 15.1631 29.3599ZM54.6075 39.9691C54.9463 40.1159 57.3628 42.5325 57.5096 42.8712C57.5661 43.0011 57.6113 43.2552 57.6169 43.4641C57.6282 44.1755 58.0008 43.769 50.7794 50.9792C43.5353 58.2176 44.0773 57.7264 43.3094 57.7151C42.7109 57.7095 42.5415 57.5852 41.13 56.1567C40.0008 55.0219 39.8709 54.8694 39.7805 54.5928C39.6563 54.2145 39.6902 53.6894 39.8539 53.3732C39.9951 53.0965 52.9644 40.1272 53.2298 39.9973C53.6702 39.7771 54.1276 39.7658 54.6075 39.9691Z" fill="#FE1718"/>
<path d="M39.6338 39.1899C39.2498 39.3932 39.0522 39.715 39.0296 40.178C39.0014 40.6692 39.1595 40.991 39.5434 41.2282C40.4581 41.7928 41.5817 41.008 41.3333 39.9691C41.1582 39.2238 40.3056 38.8342 39.6338 39.1899Z" fill="#FE1718"/>
<path d="M7.71576 50.6573C7.45603 50.7533 7.15679 51.03 7.03257 51.2897C6.9874 51.3857 6.94788 51.6115 6.94788 51.7753C6.94788 52.3964 7.38828 52.8876 7.98678 52.9384C9.03697 53.0231 9.6637 51.956 9.07649 51.0808C8.81677 50.6912 8.16746 50.488 7.71576 50.6573Z" fill="#FE1718"/>
</svg>
