<svg width="60" height="70" viewBox="0 0 60 70" fill="none" xmlns="http://www.w3.org/2000/svg">
<path d="M12.819 0.202187C12.4281 0.431348 12.3068 0.687469 12.1316 1.68499C11.9159 2.87123 11.4845 3.72048 10.6892 4.43492C10.0152 5.02804 8.84243 5.56724 8.18191 5.56724C7.62923 5.56724 6.96871 5.82336 6.82043 6.10644C6.64519 6.42997 6.64519 6.99613 6.82043 7.30617C6.96871 7.60273 7.49443 7.81841 8.34367 7.91277C10.3252 8.15541 11.9159 9.82694 12.1585 11.9163C12.2259 12.5095 12.3338 12.7925 12.5899 13.0487C13.3178 13.7766 14.2749 13.2778 14.4366 12.0916C14.7871 9.47646 16.1217 8.20933 18.9659 7.79145C19.7478 7.67013 20.0713 7.14441 19.8556 6.33561C19.7478 5.91772 19.1007 5.56724 18.4402 5.56724C17.3888 5.56724 15.8386 4.62364 15.1646 3.5722C14.7467 2.91168 14.5849 2.42639 14.4366 1.33451C14.2884 0.283067 13.5739 -0.229175 12.819 0.202187ZM14.1805 5.7964L15.1107 6.71305L14.2075 7.61621L13.2908 8.51937L12.4146 7.62969L11.5384 6.72653L12.3472 5.9312C12.7921 5.48636 13.156 5.08196 13.156 5.01456C13.156 4.81236 13.2234 4.86628 14.1805 5.7964Z" fill="#018036"/>
<path d="M32.8369 0.458298C32.8369 0.714424 32.8773 1.22666 32.9178 1.6041L32.9987 2.29159L35.3172 2.37247C36.8 2.42638 38.1076 2.54771 38.9838 2.72295C43.9175 3.70699 48.3794 6.25472 51.7494 9.97521C55.7395 14.3832 57.775 19.6943 57.775 25.5986C57.7615 31.6107 55.7664 36.8679 51.8168 41.2489C50.5766 42.6239 49.2151 43.8236 47.1392 45.3199C46.3843 45.8726 45.4273 46.6948 45.0094 47.1397C44.1601 48.0563 42.7582 50.1323 42.529 50.8197L42.3808 51.2646H34.468H26.5552L26.1912 50.5097C25.1263 48.3394 23.8053 46.8296 21.4597 45.0772C18.3459 42.7587 16.7148 41.1141 15.0567 38.6607C12.6708 35.1155 11.3632 31.1254 11.161 26.7983L11.0666 24.9111L9.94779 24.8707L8.84242 24.8302V25.7064C8.84242 28.0924 9.38162 31.3411 10.1769 33.7405C11.8889 38.8495 14.9758 43.0283 19.6265 46.4926C21.5676 47.935 23.0908 49.4583 23.7109 50.5771L24.0884 51.2646H22.6055H21.1093V52.343V53.4214H23.0504H24.9915L25.2072 54.3515C25.5307 55.7939 25.5846 55.713 24.3445 55.713H23.2661V56.7914V57.8698H24.4119H25.5577V59.7435C25.5577 62.0756 25.6251 62.2104 26.9326 62.3182L27.7819 62.3856L27.8628 63.127C28.2806 67.0362 32.2438 69.8266 35.9777 68.856C37.5954 68.4382 39.0242 67.4676 39.9004 66.187C40.4801 65.3377 41.0597 63.8549 41.0597 63.1944C41.0597 62.3991 41.1406 62.3182 42.0033 62.3182C42.6908 62.3182 42.8256 62.2778 43.0682 61.9677C43.3244 61.6442 43.3513 61.4285 43.3513 59.7435V57.8698H44.4971H45.6429V56.7914V55.713H44.5511H43.4592L43.5535 55.066C43.594 54.7155 43.7018 54.2032 43.7692 53.9201L43.904 53.4214H45.8451H47.7997V52.343V51.2646H46.3169C45.5081 51.2646 44.8341 51.2241 44.8341 51.1837C44.8341 50.9545 46.1417 49.1752 46.7618 48.5551C47.1527 48.1777 48.285 47.2475 49.2825 46.5061C54.9981 42.233 58.4085 36.8275 59.6891 29.9931C60.0801 27.9037 60.107 23.6979 59.7431 21.7433C59.3926 19.8156 58.9073 18.0093 58.3951 16.6613C55.5912 9.30121 49.7274 3.70699 42.3673 1.3345C39.9274 0.552658 37.7841 0.188698 35.0341 0.0808563L32.8369 -2.28882e-05V0.458298ZM41.4911 53.4888C41.5315 53.5292 41.518 53.8258 41.4506 54.1358C41.3967 54.4459 41.3158 54.9312 41.2619 55.2008L41.181 55.713H34.4545H27.7145L27.6606 55.403C27.6201 55.2412 27.5527 54.8638 27.5123 54.5672C27.4584 54.2706 27.391 53.8932 27.3505 53.7179L27.2831 53.4214H34.3467C38.2424 53.4214 41.4506 53.4483 41.4911 53.4888ZM41.1676 59.0426L41.208 60.1614H34.5219H27.8493V59.0156V57.8698L34.4949 57.8968L41.1271 57.9372L41.1676 59.0426ZM38.849 62.9518C38.6603 64.3672 37.7032 65.7017 36.3956 66.3622C35.8295 66.6453 35.5464 66.6992 34.4545 66.6992C33.3626 66.6992 33.0795 66.6453 32.5403 66.3757C31.2193 65.7017 30.2757 64.3941 30.0735 62.9518L29.9791 62.3182H34.4545H38.9434L38.849 62.9518Z" fill="#018036"/>
<path d="M28.011 5.70203C27.701 5.76944 27.1214 5.9986 26.7439 6.20079C26.1238 6.5378 25.8138 6.83436 25.0454 7.83188C24.8432 8.10148 24.7623 8.12844 24.4388 8.00712C23.9401 7.8184 22.8212 7.8184 22.1337 8.0206C21.3789 8.23628 20.2735 8.97768 19.8152 9.5708C19.0738 10.5414 18.7772 11.8894 19.0064 13.1969L19.1007 13.7496L18.3863 14.154C17.4562 14.6932 16.5395 15.6773 16.0542 16.6883C15.515 17.8206 15.4342 19.4247 15.8386 20.6514C16.0003 21.1232 16.1216 21.5141 16.0947 21.5276C16.0677 21.5546 15.7712 21.7163 15.4342 21.9185C14.6658 22.3634 14.1536 22.9295 13.7357 23.8596C13.0752 25.2885 13.2234 26.8118 14.1401 28.1598C14.531 28.7259 15.515 29.5617 16.0003 29.7235C16.0947 29.7504 16.0542 30.047 15.8655 30.5997C15.3668 32.069 15.5555 33.8349 16.3373 35.1694C16.7552 35.8838 17.8066 36.8679 18.5346 37.2453C19.0738 37.5149 19.1007 37.5554 19.0064 37.9598C18.4941 40.3053 19.8556 42.5969 22.1742 43.2709C22.8751 43.4731 24.1018 43.4596 24.6275 43.2439C24.7893 43.19 24.978 43.3518 25.315 43.8236C27.5797 46.9644 32.5134 45.8186 33.2413 41.9768C33.457 40.8175 33.4165 10.1774 33.2009 9.11248C32.7156 6.79392 30.3296 5.23023 28.011 5.70203ZM30.1139 8.2228C30.3026 8.3576 30.5857 8.65416 30.734 8.85637C31.0171 9.22033 31.0171 9.3012 31.0575 25.3559C31.0845 36.423 31.0575 41.6398 30.9497 41.9903C30.7744 42.5969 30.033 43.2709 29.3995 43.3922C28.4154 43.5675 27.4179 43.1091 26.9731 42.2464C26.8113 41.9094 26.8248 41.8016 27.2562 40.9658C27.5392 40.3862 27.7145 39.847 27.7145 39.5235V38.9977H26.6496H25.5846L25.5038 39.4695C25.4498 39.7257 25.2611 40.1166 25.0589 40.3457C23.5626 42.1386 20.7318 40.8175 21.1632 38.5259C21.3115 37.7306 22.2685 36.8409 22.9965 36.8409C23.2526 36.8409 23.2661 36.76 23.2661 35.6951C23.2661 34.6706 23.2391 34.5493 23.0234 34.5493C22.5516 34.5493 21.4867 34.9268 20.9475 35.2907L20.4083 35.6547L19.6534 35.2638C17.1731 34.0101 17.1596 30.6536 19.6265 29.3865C21.5541 28.3889 23.8861 29.5213 24.3445 31.6781L24.4927 32.3925H25.5846H26.6765L26.5956 31.6376C26.5552 31.2332 26.3395 30.5053 26.1104 30.0335C24.7623 27.1488 21.4328 25.976 18.6289 27.4049C17.6853 27.8902 17.3348 27.9037 16.6608 27.5262C15.6903 26.987 15.3128 25.666 15.7981 24.628C16.2295 23.7114 17.4966 23.1722 18.1302 23.617C19.5591 24.628 21.8237 24.7628 23.5357 23.9405C25.0859 23.1856 26.38 21.3793 26.5822 19.6808L26.6765 18.9125H25.5712H24.4793L24.3984 19.4517C24.2636 20.3009 23.5626 21.3389 22.8347 21.7837C22.3359 22.0938 21.9855 22.2016 21.2845 22.242C20.4622 22.296 20.287 22.269 19.6265 21.9185C17.1596 20.6244 17.1731 17.2679 19.6534 16.0412L20.4083 15.6503L20.9475 16.0143C21.4328 16.3243 22.646 16.7557 23.1043 16.7557C23.2256 16.7557 23.2661 16.4321 23.2661 15.6099C23.2661 14.5449 23.2526 14.4641 22.9965 14.4641C22.2685 14.4641 21.3115 13.5744 21.1632 12.7791C20.9475 11.6333 21.7159 10.3931 22.7943 10.1504C23.9266 9.89433 25.1667 10.6222 25.4498 11.7141L25.6116 12.3073H26.663H27.7145V11.7815C27.7145 11.458 27.5392 10.9188 27.2562 10.3526C26.9192 9.67865 26.8248 9.35513 26.9057 9.15292C27.0405 8.78896 27.6875 8.18236 28.1189 8.00712C28.6176 7.79144 29.696 7.91276 30.1139 8.2228Z" fill="#018036"/>
<path d="M39.1995 5.70204C37.4201 6.066 36.0182 7.50837 35.6677 9.32817C35.479 10.3257 35.479 40.9793 35.6677 41.9768C36.3956 45.8052 41.3158 46.9779 43.567 43.8506C43.9984 43.244 44.0927 43.19 44.4028 43.2844C44.605 43.3383 45.1981 43.3788 45.7103 43.3788C48.4603 43.3653 50.4823 40.7906 49.9161 38.0407C49.8217 37.5554 49.8217 37.5419 50.5227 37.1375C51.4528 36.6118 52.3695 35.6277 52.8547 34.6167C53.3939 33.4979 53.4748 31.759 53.0704 30.5862C52.9087 30.1414 52.8008 29.7774 52.8143 29.7639C52.8413 29.7504 53.1378 29.5887 53.4748 29.3865C54.2432 28.9416 54.7554 28.3755 55.1733 27.4453C56.1439 25.3425 55.2946 22.8082 53.2726 21.7837C53.0435 21.6759 52.8413 21.5546 52.8143 21.5411C52.7873 21.5141 52.9087 21.1232 53.0704 20.6514C53.4613 19.4517 53.3939 17.8206 52.8952 16.7287C52.4503 15.7582 51.4528 14.6932 50.5227 14.154C49.8487 13.7766 49.8083 13.7361 49.9026 13.3317C50.307 11.5119 49.5791 9.67865 48.0559 8.64069C46.9909 7.91277 45.8047 7.71057 44.2814 8.02061C44.1601 8.04757 43.8231 7.75101 43.4726 7.31964C42.4347 6.05252 40.6957 5.40548 39.1995 5.70204ZM40.9114 8.07453C41.235 8.19585 41.5854 8.49241 41.8146 8.81593L42.1786 9.34165L41.7472 10.1505C41.5046 10.5953 41.2754 11.2558 41.235 11.6333L41.1541 12.3073H42.2325H43.2974L43.4592 11.7141C43.7422 10.6492 44.9824 9.89433 46.0608 10.137C46.7618 10.2987 47.2066 10.6627 47.5436 11.3367C47.8941 12.0377 47.8402 12.9543 47.4358 13.507C47.0718 13.9923 46.3439 14.4641 45.9664 14.4641C45.6564 14.4641 45.6429 14.491 45.6429 15.6099C45.6429 16.4322 45.6834 16.7557 45.8182 16.7557C46.263 16.7557 47.4762 16.3243 47.948 16.0143L48.4872 15.6638L49.1208 15.9469C50.7249 16.6613 51.4663 18.225 50.981 19.8696C50.7114 20.8266 50.1318 21.5006 49.2017 21.959C48.5681 22.269 48.3524 22.3095 47.6245 22.2555C45.926 22.1207 44.9015 21.1367 44.5106 19.2764C44.4297 18.9125 44.4162 18.9125 43.3513 18.9125H42.2729V19.2764C42.2729 20.4357 42.9739 21.9185 43.9444 22.8756C45.6699 24.5876 48.1098 24.965 50.3475 23.8597C51.3315 23.3744 51.6955 23.3744 52.3964 23.8327C53.9466 24.8437 53.4479 27.4723 51.655 27.7689C51.318 27.8228 50.981 27.7284 50.3475 27.4184C48.1637 26.3535 45.8451 26.6635 44.0927 28.2407C43.0817 29.1573 42.2864 30.8288 42.2729 32.0151V32.3925H43.3513C44.5376 32.3925 44.4028 32.4869 44.6319 31.395C44.6724 31.2198 44.888 30.7884 45.1307 30.4244C46.6404 28.2002 50.1048 28.726 50.9675 31.3141C51.5067 32.9452 50.7384 34.6437 49.1208 35.3581L48.4872 35.6412L47.948 35.2907C47.4223 34.9268 46.3439 34.5493 45.8856 34.5493C45.6699 34.5493 45.6429 34.6706 45.6429 35.6951C45.6429 36.7601 45.6564 36.8409 45.9125 36.8409C46.3304 36.8409 46.91 37.1779 47.301 37.6497C48.1772 38.6877 47.8132 40.3188 46.5596 40.9658C46.0338 41.2354 45.1172 41.2354 44.5915 40.9658C44.0658 40.6962 43.5131 39.9818 43.4052 39.4291L43.3244 38.9977H42.2325H41.1541L41.235 39.6852C41.2889 40.0761 41.5046 40.6962 41.7337 41.1006C42.2055 41.9499 42.1516 42.2195 41.4102 42.88C40.6014 43.5944 39.5365 43.6214 38.6603 42.9609C37.7706 42.2734 37.8245 43.3114 37.8245 25.666C37.8245 14.6393 37.8649 9.51689 37.9728 9.24729C38.4041 8.08801 39.6713 7.57576 40.9114 8.07453Z" fill="#018036"/>
<path d="M5.97118 11.3906C5.70158 11.6063 5.47242 12.1994 5.47242 12.7116C5.47242 13.3991 4.91973 14.6258 4.31313 15.2729C3.59869 16.0412 2.76293 16.4726 1.59016 16.6748C1.0914 16.7557 0.59264 16.8905 0.47132 16.9579C-0.121802 17.3218 -0.162242 18.3463 0.39044 18.7103C0.5522 18.8181 1.10488 18.9664 1.61712 19.0473C2.80337 19.236 3.50433 19.5865 4.28617 20.4222C4.94669 21.1097 5.47242 22.242 5.47242 22.97C5.47242 23.9944 6.24078 24.7358 6.99566 24.4528C7.48094 24.264 7.6427 23.981 7.76402 23.1048C8.00666 21.3389 9.09855 19.8696 10.5409 19.3304C10.9453 19.1686 11.4171 19.0473 11.5789 19.0473C12.5764 19.0473 13.2908 18.535 13.2908 17.8206C13.2908 17.1735 12.9134 16.8905 11.7811 16.6883C9.61079 16.3108 8.07406 14.8819 7.83142 13.0082C7.69662 11.9702 7.62922 11.768 7.35962 11.4984C7.04958 11.1884 6.32166 11.1345 5.97118 11.3906ZM7.52138 16.9579L8.42455 17.8341L7.52138 18.7507L6.6317 19.6539L5.71506 18.7372L4.79841 17.8071L5.17585 17.5105C5.37806 17.3623 5.78246 16.9713 6.06554 16.6613C6.3621 16.3378 6.60474 16.0817 6.60474 16.0817C6.61822 16.0817 7.0361 16.4726 7.52138 16.9579Z" fill="#018036"/>
</svg>
