<svg width="69" height="73" viewBox="0 0 69 73" fill="none" xmlns="http://www.w3.org/2000/svg">
<path d="M33.0202 0.233506C31.7213 0.656737 30.5829 1.67833 30.0283 2.91883C29.7948 3.44422 29.7073 3.91123 29.7073 4.84526C29.7073 5.92523 29.7511 6.18792 30.1305 6.93223C30.6121 7.91004 31.5461 8.82947 32.5094 9.26729C33.0347 9.51539 33.4726 9.58836 34.4358 9.58836C35.399 9.58836 35.8368 9.51539 36.3622 9.26729C37.3254 8.82947 38.2595 7.91004 38.7411 6.93223C39.1059 6.20252 39.1643 5.92523 39.1643 4.84526C39.1643 3.79448 39.1059 3.47341 38.7702 2.78748C38.3032 1.80968 37.3108 0.861055 36.3622 0.42323C35.5012 0.0583759 33.8666 -0.0437832 33.0202 0.233506Z" fill="#FE1718"/>
<path d="M19.2578 12.8721C14.1645 15.8347 9.93216 18.2865 9.8446 18.3157C9.71325 18.3595 10.1657 19.381 10.3846 19.527C10.443 19.5708 10.8078 19.4102 11.1873 19.1767C11.5667 18.9432 14.4855 17.2503 17.6525 15.426C24.3366 11.5586 29.3862 8.62515 29.4446 8.56677C29.5467 8.47921 28.8462 7.47221 28.7003 7.4868C28.5981 7.4868 24.3512 9.90944 19.2578 12.8721Z" fill="#FE1718"/>
<path d="M39.7043 7.99761C39.5292 8.28949 39.4124 8.55219 39.427 8.58138C39.5438 8.69813 58.414 19.5854 58.4432 19.5562C58.7059 19.1621 59.1145 18.3887 59.0853 18.3595C58.7789 18.1406 40.2297 7.47222 40.1421 7.47222C40.0692 7.47222 39.8648 7.70573 39.7043 7.99761Z" fill="#FE1718"/>
<path d="M33.7061 19.5124V28.05H34.4358H35.1655V19.5124V10.9748H34.4358H33.7061V19.5124Z" fill="#FE1718"/>
<path d="M3.53995 17.4692C1.43839 18.053 0.139514 19.6729 0.0227609 21.8475C-0.0502099 23.4236 0.329238 24.4598 1.36542 25.5106C2.4162 26.5468 3.45239 26.9262 5.02856 26.8533C6.82364 26.7511 8.12252 25.9338 8.96898 24.3723C9.31924 23.7301 9.40681 23.3799 9.45059 22.3437C9.50897 21.2053 9.47978 21.001 9.11492 20.1837C8.15171 18.0384 5.71448 16.8563 3.53995 17.4692Z" fill="#FE1718"/>
<path d="M62.369 17.5568C61.3766 17.9362 60.4426 18.7827 59.9026 19.7459C59.5524 20.4027 59.4648 20.7529 59.421 21.7891C59.3626 22.9274 59.3918 23.1318 59.7567 23.949C60.895 26.4884 63.916 27.5538 66.3386 26.2841C67.871 25.4668 68.7467 24.0804 68.8488 22.2853C68.9218 20.7091 68.557 19.7167 67.4916 18.6368C66.1489 17.2941 64.1349 16.8709 62.369 17.5568Z" fill="#FE1718"/>
<path d="M10.0052 25.2917L9.62573 25.8609L10.1657 26.1965C10.4722 26.3862 12.924 27.8749 15.6093 29.5094C18.2947 31.1294 21.2865 32.9536 22.2643 33.5374C23.2275 34.1357 24.074 34.6174 24.1177 34.6174C24.1761 34.6174 24.3512 34.3547 24.5118 34.0336L24.8037 33.4644L24.4826 33.2455C24.2929 33.1288 21.7827 31.611 18.893 29.8597C16.0034 28.123 12.9094 26.2403 12.0046 25.7003L10.3846 24.7225L10.0052 25.2917Z" fill="#FE1718"/>
<path d="M55.9622 26.4154C51.1024 29.3489 44.2869 33.479 44.2285 33.5374C44.1118 33.6541 44.7101 34.7779 44.8561 34.7195C44.9582 34.6757 47.7165 33.0266 51.0002 31.0418C54.2985 29.0424 57.5238 27.1014 58.1805 26.6927L59.3772 25.9776L58.9978 25.4084C58.7935 25.102 58.6183 24.8393 58.6038 24.8393C58.6038 24.8393 57.407 25.5544 55.9622 26.4154Z" fill="#FE1718"/>
<path d="M63.4781 39.2145V50.2331H64.1349H64.7916V39.2145V28.1959H64.1349H63.4781V39.2145Z" fill="#FE1718"/>
<path d="M4.0799 39.3167V50.3061H4.73663H5.39337V39.3167V28.3419H4.73663H4.0799V39.3167Z" fill="#FE1718"/>
<path d="M32.6991 29.5094C28.7878 30.3413 25.7522 33.2455 24.862 37.0254C24.4971 38.6162 24.6431 41.0096 25.2269 42.7901C25.9128 44.9062 26.8322 46.424 28.3792 47.971C31.3564 50.9628 34.7277 51.605 38.1427 49.8391C39.5875 49.0802 41.5723 47.0808 42.5063 45.417C44.0095 42.7317 44.5641 39.594 43.9949 37.0254C43.2798 33.7855 40.6237 30.8812 37.4422 29.8597C36.1287 29.4364 33.8374 29.2759 32.6991 29.5094Z" fill="#FE1718"/>
<path d="M44.0679 45.2857C43.8928 45.6214 43.7761 45.8986 43.8053 45.9132C43.8344 45.9278 44.6663 46.3948 45.6733 46.9494C46.6803 47.504 49.9202 49.2845 52.8828 50.919C55.8454 52.5536 58.3264 53.8817 58.3848 53.8817C58.4578 53.8817 58.6475 53.619 58.7935 53.3125L59.0853 52.7433L53.5833 49.7077C45.9798 45.5046 44.462 44.6873 44.4182 44.6873C44.389 44.6873 44.2285 44.95 44.0679 45.2857Z" fill="#FE1718"/>
<path d="M24.001 45.0376C23.8404 45.1397 22.0016 46.1759 19.9146 47.3143C17.8276 48.4672 14.6899 50.1893 12.9532 51.1525L9.78625 52.9038L10.1073 53.4584C10.2825 53.7649 10.4722 54.0276 10.516 54.0276C10.5597 54.0276 12.0046 53.2541 13.7267 52.3055C15.4488 51.3569 18.6887 49.5764 20.9362 48.3359C23.1837 47.11 25.0517 46.0738 25.0809 46.0446C25.1977 45.957 24.6139 44.8333 24.4534 44.8479C24.3658 44.8479 24.1615 44.9354 24.001 45.0376Z" fill="#FE1718"/>
<path d="M62.6463 51.8093C61.6247 52.1741 60.8366 52.7433 60.282 53.5168C59.6399 54.407 59.3918 55.2097 59.3918 56.3772C59.3918 58.2599 60.2528 59.7193 61.902 60.6095C62.763 61.0766 62.909 61.1057 64.1349 61.1057C65.2878 61.1057 65.5505 61.0474 66.2219 60.6971C67.1705 60.2009 68.0169 59.3398 68.4694 58.435C68.951 57.4426 68.951 55.2827 68.4694 54.3049C67.404 52.1741 64.7916 51.0504 62.6463 51.8093Z" fill="#FE1718"/>
<path d="M3.26266 51.8968C1.87622 52.3493 0.664902 53.5606 0.197889 54.947C-0.152371 55.9978 -0.0210233 57.6615 0.460584 58.6247C0.927597 59.5296 1.94919 60.5074 2.88321 60.916C3.84643 61.3539 5.64151 61.3539 6.59013 60.9306C7.58253 60.4782 8.58953 59.4858 9.05654 58.4788C10.1657 56.1437 9.07114 53.1373 6.73607 52.1012C5.88961 51.7217 4.12372 51.605 3.26266 51.8968Z" fill="#FE1718"/>
<path d="M29.8386 54.8303C28.3792 55.1513 20.7757 57.7783 19.8124 58.2891C18.7179 58.8729 17.4628 60.0112 16.3098 61.456C14.3688 63.8932 13.5078 66.6078 13.318 70.913L13.2305 73H34.8736H56.5168L56.4292 70.913C56.2395 66.7245 55.4806 64.1705 53.6855 61.7479C52.7077 60.4198 51.0293 58.8583 49.964 58.3037C48.9278 57.7491 41.295 55.1222 39.8502 54.8157C38.5367 54.5384 31.1083 54.553 29.8386 54.8303Z" fill="#FE1718"/>
<path d="M10.0781 59.5004C9.91761 59.7923 9.77167 60.0696 9.77167 60.128C9.77167 60.2009 13.8872 62.6381 14.4418 62.8862C14.5148 62.93 15.2007 61.7333 15.1423 61.6895C15.0402 61.6166 10.5743 59.0626 10.4868 59.0188C10.443 58.9896 10.2533 59.2085 10.0781 59.5004Z" fill="#FE1718"/>
<path d="M56.4876 60.0988C55.4952 60.6825 54.6195 61.2225 54.5466 61.2955C54.4006 61.4414 54.8384 62.4922 55.0428 62.4922C55.1011 62.4922 56.0643 61.9668 57.1881 61.3247L59.2167 60.1426L58.8956 59.5734C58.7351 59.2523 58.5308 59.0042 58.4432 59.0042C58.3702 59.0188 57.48 59.5004 56.4876 60.0988Z" fill="#FE1718"/>
</svg>
