<svg width="60" height="62" viewBox="0 0 60 62" fill="none" xmlns="http://www.w3.org/2000/svg">
<path d="M29.5272 0.108664C26.3744 0.616606 23.9748 1.68504 22.3459 3.31396C20.3492 5.3107 19.5785 7.43005 19.5785 10.8806V12.8247L18.6151 13.9457C17.284 15.5396 16.3031 17.3437 15.4974 19.6732C14.6742 22.0903 14.5166 23.2989 14.9194 24.0696C15.2697 24.7351 15.6901 24.9803 16.4958 24.9803C17.5642 24.9803 18.0722 24.3148 18.5976 22.2655C20.1915 16.0826 25.3585 11.3009 32.1369 9.72455C33.8709 9.3217 40.5968 9.02394 40.5968 9.33921C40.5968 9.4443 40.229 9.56691 39.7736 9.63697C36.3056 10.1099 31.2437 11.9665 28.3712 13.8231C25.9365 15.3995 23.2567 18.3946 23.2567 19.5506C23.2567 20.1812 24.4127 21.2671 25.884 22.0028C28.9316 23.5441 32.4697 23.6142 35.605 22.1954C36.796 21.6524 37.9695 20.8292 40.6844 18.6048C42.2608 17.3087 44.3801 16.1702 45.939 15.7848C48.2685 15.1893 51.8416 15.5746 54.2237 16.6606C56.4131 17.659 57.0436 16.9408 56.0628 14.5062C53.488 8.02557 45.8864 2.47322 36.831 0.458969C35.027 0.056118 31.0685 -0.136551 29.5272 0.108664Z" fill="#018036"/>
<path d="M5.35609 17.0109C4.13002 17.6765 1.90558 21.5298 1.09988 24.3673C-0.529043 30.1123 -0.35389 35.8398 1.66037 41.9351C3.34183 47.0671 6.14427 50.6577 9.85751 52.4793C12.9752 54.0207 16.0229 53.6879 19.4909 51.4634L20.717 50.6752L21.8555 50.9029C24.9206 51.4634 27.9683 51.2708 31.051 50.2724C32.8901 49.6769 33.3105 49.239 33.1878 48.0304C33.1003 47.1021 32.7149 46.6117 31.9092 46.419C31.664 46.349 30.7532 46.5241 29.7724 46.8044C28.196 47.2773 27.8632 47.3123 25.1834 47.2948C22.5561 47.2948 22.1532 47.2422 20.7345 46.8044C15.4624 45.193 11.0661 41.4097 8.19356 35.9974C7.72065 35.0867 7.3178 34.2985 7.3178 34.2284C7.3178 34.1583 8.59641 35.3844 10.1728 36.9433C12.0995 38.905 13.5182 40.1486 14.6217 40.8842C17.7569 43.0036 20.9096 44.2121 23.4143 44.2647C25.1659 44.2997 25.306 44.2296 25.5512 43.0561C26.0066 40.9543 25.5687 38.0818 24.4477 35.9624C23.6946 34.5262 21.4176 32.2492 19.9113 31.3909C19.2632 31.0406 17.897 30.4451 16.8461 30.0773C14.2363 29.1315 13.7459 28.9213 12.4848 28.1156C9.40211 26.1714 7.26525 22.4932 6.87992 18.4647C6.79234 17.5188 6.68725 17.2211 6.38949 17.0109C5.93409 16.6956 5.95161 16.6956 5.35609 17.0109Z" fill="#018036"/>
<path d="M44.6779 20.8642C43.9422 21.1795 43.5043 22.0203 43.662 22.826C43.7496 23.2813 44.1349 23.7893 45.1333 24.7877C48.4261 28.063 49.8274 31.3384 50.0025 36.1901C50.1426 40.061 49.5646 42.7758 47.8656 46.2614C47.0775 47.8728 45.361 50.6577 45.2384 50.5176C45.2033 50.4826 45.5186 49.3791 45.939 48.0479C47.1825 44.1771 47.5153 42.2504 47.4978 38.6422C47.4978 35.1217 47.2176 33.7555 46.0791 31.461L45.4135 30.1473L44.5903 30.1649C42.7337 30.1824 39.7035 32.3543 38.3549 34.6488C37.5842 35.9624 36.9536 37.8015 36.7084 39.518C36.5157 40.7616 36.5508 41.182 36.9711 43.8443C37.7768 48.7836 37.6017 50.973 36.218 53.828C35.4123 55.4569 33.5382 57.5938 31.9267 58.6972C31.1386 59.2402 30.9634 59.4679 30.9634 59.8532C30.9634 60.8166 32.3997 61.2545 35.605 61.2545C40.6669 61.2545 46.2367 59.03 51.2286 55.0015C55.4673 51.551 58.2522 47.6976 59.4257 43.6516C61.0546 37.9416 59.2155 33.7029 53.9434 31.0406C52.9451 30.5327 53.0326 30.6728 51.9117 27.9229C50.6681 24.9103 46.7622 20.5315 45.3785 20.6015C45.3084 20.619 44.9931 20.7241 44.6779 20.8642Z" fill="#018036"/>
</svg>
